<?xml version="1.0" standalone="no"?>
<!DOCTYPE svg PUBLIC "-//W3C//DTD SVG 20010904//EN"
 "http://www.w3.org/TR/2001/REC-SVG-20010904/DTD/svg10.dtd">
<svg version="1.0" xmlns="http://www.w3.org/2000/svg"
 width="484.000000pt" height="484.000000pt" viewBox="0 0 484.000000 484.000000"
 preserveAspectRatio="xMidYMid meet">
<metadata>
Created by potrace 1.11, written by Peter Selinger 2001-2013
</metadata>
<g transform="translate(0.000000,484.000000) scale(0.100000,-0.100000)"
fill="#000000" stroke="none">
<path d="M2660 4204 c-93 -20 -187 -69 -248 -131 -68 -68 -94 -126 -100 -226
l-5 -79 329 4 c280 4 337 7 384 22 196 63 307 187 318 353 l5 73 -309 -1
c-226 0 -327 -4 -374 -15z"/>
<path d="M2212 3549 c-158 -33 -299 -96 -390 -174 -65 -56 -69 -71 -77 -250
-19 -469 -65 -803 -166 -1207 -94 -377 -238 -791 -433 -1251 l-16 -37 181 2
181 3 39 105 c192 517 356 1151 409 1580 19 156 14 145 78 173 126 57 321 100
587 132 195 23 203 25 135 42 -218 53 -587 62 -742 17 -16 -5 -18 3 -18 66 l0
71 63 28 c114 52 286 89 567 124 101 13 180 26 174 29 -5 4 -59 16 -119 28
-149 30 -428 38 -570 16 -56 -8 -104 -11 -109 -6 -5 5 -7 36 -4 69 5 71 32
107 109 146 234 120 817 105 1023 -25 l49 -31 -7 47 c-8 64 -36 104 -103 151
-115 80 -245 133 -392 158 -120 21 -333 18 -449 -6z"/>
<path d="M3701 3500 c-133 -48 -211 -147 -211 -267 l0 -33 229 0 c197 0 238 3
290 19 131 41 211 134 211 246 l0 55 -232 0 c-205 -1 -239 -3 -287 -20z"/>
<path d="M1219 3254 c-70 -21 -140 -73 -173 -128 -24 -39 -31 -63 -34 -117
l-4 -69 174 0 c96 0 201 5 234 11 152 28 254 140 254 281 l0 38 -202 -1 c-146
0 -216 -4 -249 -15z"/>
<path d="M3445 3104 c-149 -24 -266 -67 -365 -134 -93 -63 -96 -70 -104 -278
-25 -662 -171 -1253 -500 -2024 l-16 -38 153 0 153 0 16 48 c165 481 220 663
278 927 36 160 90 471 90 518 0 44 8 52 72 82 80 37 225 71 407 95 260 35 255
32 116 60 -141 27 -373 33 -493 11 -40 -7 -75 -11 -77 -9 -2 2 -1 30 2 62 6
58 6 58 52 78 96 42 309 84 571 114 l65 7 -44 13 c-69 21 -253 44 -349 44 -83
0 -237 -15 -274 -26 -16 -5 -18 2 -18 54 0 73 19 101 93 135 100 47 195 62
397 62 234 0 378 -27 461 -86 17 -12 33 -19 36 -16 3 3 2 24 -2 46 -9 56 -70
113 -180 167 -127 63 -222 85 -380 89 -71 2 -143 1 -160 -1z"/>
<path d="M970 2859 c-130 -16 -261 -64 -347 -127 -74 -55 -76 -61 -85 -281
-20 -542 -147 -1068 -407 -1688 -28 -68 -51 -125 -51 -128 0 -3 62 -4 138 -3
l137 3 86 255 c127 379 215 743 250 1028 l13 104 37 19 c86 43 296 88 539 115
79 8 65 15 -79 39 -80 14 -136 16 -259 12 -86 -4 -172 -9 -189 -13 l-33 -6 0
51 c0 41 4 53 23 65 55 37 322 95 512 112 41 4 72 10 70 14 -3 4 -47 16 -97
26 -104 20 -368 24 -450 7 l-47 -10 -6 38 c-13 73 34 123 152 159 210 65 590
38 715 -51 l31 -22 -7 39 c-10 54 -32 82 -104 131 -135 92 -348 136 -542 112z"/>
<path d="M4175 2140 c13 -375 72 -757 175 -1119 43 -149 117 -371 129 -384 4
-4 69 -6 144 -5 l136 3 -31 50 c-111 176 -321 771 -508 1440 l-50 180 5 -165z"/>
</g>
</svg>
